Coordinates
version=1
nRows=10
nColumns=40
inDegrees=yes

Units are S.I. units (second, meters, Newtons, ...)
If the header above contains a line with 'inDegrees', this indicates whether rotational values are in degrees (yes) or radians (no).

endheader
time	pelvis_tilt	pelvis_list	pelvis_rotation	pelvis_tx	pelvis_ty	pelvis_tz	hip_flexion_r	hip_adduction_r	hip_rotation_r	knee_angle_r	knee_angle_r_beta	ankle_angle_r	subtalar_angle_r	mtp_angle_r	hip_flexion_l	hip_adduction_l	hip_rotation_l	knee_angle_l	knee_angle_l_beta	ankle_angle_l	subtalar_angle_l	mtp_angle_l	lumbar_extension	lumbar_bending	lumbar_rotation	arm_flex_r	arm_add_r	arm_rot_r	elbow_flex_r	pro_sup_r	wrist_flex_r	wrist_dev_r	arm_flex_l	arm_add_l	arm_rot_l	elbow_flex_l	pro_sup_l	wrist_flex_l	wrist_dev_l
     29.96000000	      2.66022132	      5.24621922	      7.45857599	      1.26674385	      0.86783060	     -0.53680208	     15.97299847	     -7.20015053	     -5.86722981	     72.52637974	      1.26582412	     -5.05856739	    -14.05117743	      0.00000000	     14.97840500	      4.85652916	     -3.42792114	     39.57873144	      0.69077918	     21.82602353	     17.02620024	      0.00000000	    -23.18647241	    -10.01639129	     -0.52803699	      0.00000000	    -14.99987949	      0.00000000	     75.00017585	     45.00000026	      0.00000000	      0.00000000	      0.00000000	    -14.99987949	      0.00000000	     75.00017585	     45.00000026	      0.00000000	      0.00000000
     29.97000000	      2.69988189	      5.34504209	      7.47799470	      1.26429874	      0.86723466	     -0.53717752	     18.85226624	     -7.52141954	     -5.40837847	     72.23934659	      1.26081445	     -3.38327243	    -13.80352269	      0.00000000	     12.71782532	      4.33906042	     -4.47558783	     39.09245401	      0.68229204	     23.13333010	     17.98398388	      0.00000000	    -23.71281015	     -9.86554685	     -2.58631533	      0.00000000	    -14.99987980	      0.00000000	     75.00017585	     45.00000026	      0.00000000	      0.00000000	      0.00000000	    -14.99987980	      0.00000000	     75.00017585	     45.00000026	      0.00000000	      0.00000000
     29.98000000	      2.65336982	      5.19669596	      7.46811141	      1.26214314	      0.86781861	     -0.53775540	     21.57803811	     -7.57032833	     -5.05354250	     71.14130495	      1.24165001	     -2.02586502	    -12.77694676	      0.00000000	     10.48335732	      3.87004536	     -4.71532259	     38.48943995	      0.67176745	     24.04282116	     18.36465166	      0.00000000	    -23.96146012	     -9.36021543	     -4.36835773	      0.00000000	    -14.99988071	      0.00000000	     75.00017585	     45.00000026	      0.00000000	      0.00000000	      0.00000000	    -14.99988071	      0.00000000	     75.00017585	     45.00000026	      0.00000000	      0.00000000
     29.99000000	      2.18347026	      4.79987314	      7.55658410	      1.26039429	      0.86828576	     -0.53924331	     24.44856387	     -7.45013557	     -4.81909752	     69.28054974	      1.20917370	     -0.87699371	    -12.31366834	      0.00000000	      8.70112829	      3.37008279	     -4.58433481	     37.71745784	      0.65829382	     24.46759471	     18.51908787	      0.00000000	    -23.53556657	     -8.46306064	     -6.04869872	      0.00000000	    -14.99988149	      0.00000000	     75.00017585	     45.00000026	      0.00000000	      0.00000000	      0.00000000	    -14.99988149	      0.00000000	     75.00017585	     45.00000026	      0.00000000	      0.00000000
     30.00000000	      1.39884737	      4.27951210	      7.64022555	      1.25914158	      0.86908991	     -0.54106214	     27.31127907	     -7.18831034	     -4.56306364	     66.62880420	      1.16289201	     -0.33231791	    -11.68571257	      0.00000000	      6.97994766	      2.96284471	     -4.04204498	     36.34551066	      0.63434883	     24.52825569	     18.50833262	      0.00000000	    -22.56507928	     -7.40047189	     -7.28736828	      0.00000000	    -14.99988225	      0.00000000	     75.00017585	     45.00000026	      0.00000000	      0.00000000	      0.00000000	    -14.99988225	      0.00000000	     75.00017585	     45.00000026	      0.00000000	      0.00000000
     30.01000000	      0.56325400	      3.19736166	      7.82652506	      1.25840087	      0.87049618	     -0.54307553	     29.79220509	     -6.34512692	     -4.76214884	     63.04927613	      1.10041746	      0.02695356	    -11.31992861	      0.00000000	      5.20895657	      1.93164080	     -3.53476319	     34.66362970	      0.60499447	     24.63991167	     18.57620673	      0.00000000	    -21.33205706	     -5.68447213	     -8.56069177	      0.00000000	    -14.99988264	      0.00000000	     75.00017585	     45.00000026	      0.00000000	      0.00000000	      0.00000000	    -14.99988264	      0.00000000	     75.00017585	     45.00000026	      0.00000000	      0.00000000
     30.02000000	     -0.28298429	      2.30106013	      7.97909822	      1.25814426	      0.87270573	     -0.54505335	     31.86516055	     -5.67424924	     -4.90311880	     58.71814443	      1.02482495	      0.13727987	    -10.98645552	      0.00000000	      3.14930461	      1.25951515	     -2.62532064	     32.32191460	      0.56412383	     23.97565638	     18.48496760	      0.00000000	    -20.03917012	     -4.13140865	     -9.85728014	      0.00000000	    -14.99988309	      0.00000000	     75.00017585	     45.00000026	      0.00000000	      0.00000000	      0.00000000	    -14.99988309	      0.00000000	     75.00017585	     45.00000026	      0.00000000	      0.00000000
     30.03000000	     -1.04548122	      1.38792361	      8.10627272	      1.25862719	      0.87558392	     -0.54675747	     33.33797444	     -4.89739027	     -5.03811667	     53.76834290	      0.93843462	      0.39038828	    -10.13127602	      0.00000000	      0.89535451	      0.46408902	     -2.06736189	     29.64802650	      0.51745568	     22.85174608	     18.31858333	      0.00000000	    -18.80093917	     -2.56827180	    -11.12626366	      0.00000000	    -14.99988355	      0.00000000	     75.00017585	     45.00000026	      0.00000000	      0.00000000	      0.00000000	    -14.99988355	      0.00000000	     75.00017585	     45.00000026	      0.00000000	      0.00000000
     30.04000000	     -2.38861479	      0.66260732	      8.12374489	      1.25931839	      0.87770513	     -0.54805367	     35.43926077	     -4.22535318	     -4.96733139	     48.74971320	      0.85084300	      0.57526081	     -9.35350006	      0.00000000	     -0.65806901	     -0.04075848	     -1.65689655	     27.18486312	      0.47446537	     21.55767368	     18.41558774	      0.00000000	    -16.89160160	     -1.35247685	    -12.45908464	      0.00000000	    -14.99988369	      0.00000000	     75.00017585	     45.00000026	      0.00000000	      0.00000000	      0.00000000	    -14.99988369	      0.00000000	     75.00017585	     45.00000026	      0.00000000	      0.00000000
     30.05000000	     -2.68546928	     -0.52039101	      7.84113273	      1.26119788	      0.88175036	     -0.54934299	     35.66525437	     -2.84791191	     -4.83606925	     42.49633277	      0.74170093	      0.61025679	     -7.41698390	      0.00000000	     -3.46780560	     -1.19725188	     -1.81692064	     24.25947196	      0.42340766	     17.67432838	     18.04991656	      0.00000000	    -16.00997464	      0.51425417	    -13.16217152	      0.00000000	    -14.99988410	      0.00000000	     75.00017585	     45.00000026	      0.00000000	      0.00000000	      0.00000000	    -14.99988410	      0.00000000	     75.00017585	     45.00000026	      0.00000000	      0.00000000
